<svg width="860" height="860" viewBox="0 0 860 860" xmlns="http://www.w3.org/2000/svg">
    <defs>
        <linearGradient x1="50%" y1="-.799%" x2="50%" y2="100.801%" id="s901na5s4a">
            <stop stop-color="#FF2C3D" stop-opacity=".8" offset="0%"/>
            <stop stop-color="#FF2C3D" stop-opacity=".3" offset="100%"/>
        </linearGradient>
        <linearGradient x1="50.354%" y1="49.618%" x2="49.648%" y2="50.383%" id="fx9lcqjn2b">
            <stop stop-color="#FF2C3D" stop-opacity=".8" offset="0%"/>
            <stop stop-color="#FF2C3D" stop-opacity=".3" offset="100%"/>
        </linearGradient>
        <linearGradient x1="50.72%" y1="49.268%" x2="49.284%" y2="50.732%" id="d6icdrr3bc">
            <stop stop-color="#FF2C3D" stop-opacity=".8" offset="0%"/>
            <stop stop-color="#FF2C3D" stop-opacity=".3" offset="100%"/>
        </linearGradient>
        <linearGradient x1="51.111%" y1="48.883%" x2="48.894%" y2="51.117%" id="2pnfdztcod">
            <stop stop-color="#FF2C3D" stop-opacity=".8" offset="0%"/>
            <stop stop-color="#FF2C3D" stop-opacity=".3" offset="100%"/>
        </linearGradient>
        <linearGradient x1="51.544%" y1="48.455%" x2="48.462%" y2="51.548%" id="ptjk4ulo1e">
            <stop stop-color="#FF2C3D" stop-opacity=".8" offset="0%"/>
            <stop stop-color="#FF2C3D" stop-opacity=".3" offset="100%"/>
        </linearGradient>
        <linearGradient x1="52.044%" y1="47.959%" x2="47.964%" y2="52.046%" id="c254zjaoif">
            <stop stop-color="#FF2C3D" stop-opacity=".8" offset="0%"/>
            <stop stop-color="#FF2C3D" stop-opacity=".3" offset="100%"/>
        </linearGradient>
        <linearGradient x1="52.648%" y1="47.359%" x2="47.36%" y2="52.648%" id="hi1yai2y7g">
            <stop stop-color="#FF2C3D" stop-opacity=".8" offset="0%"/>
            <stop stop-color="#FF2C3D" stop-opacity=".3" offset="100%"/>
        </linearGradient>
        <linearGradient x1="52.237%" y1="47.771%" x2="47.768%" y2="52.236%" id="39ditizfjh">
            <stop stop-color="#FF2C3D" stop-opacity=".8" offset="0%"/>
            <stop stop-color="#FF2C3D" stop-opacity=".3" offset="100%"/>
        </linearGradient>
        <linearGradient x1="51.709%" y1="48.3%" x2="48.293%" y2="51.707%" id="1bkq0p5c0i">
            <stop stop-color="#FF2C3D" stop-opacity=".8" offset="0%"/>
            <stop stop-color="#FF2C3D" stop-opacity=".3" offset="100%"/>
        </linearGradient>
        <linearGradient x1="51.259%" y1="48.752%" x2="48.742%" y2="51.254%" id="1suvzpwgij">
            <stop stop-color="#FF2C3D" stop-opacity=".8" offset="0%"/>
            <stop stop-color="#FF2C3D" stop-opacity=".3" offset="100%"/>
        </linearGradient>
        <linearGradient x1="50.859%" y1="49.155%" x2="49.141%" y2="50.849%" id="8a7xke97ck">
            <stop stop-color="#FF2C3D" stop-opacity=".8" offset="0%"/>
            <stop stop-color="#FF2C3D" stop-opacity=".3" offset="100%"/>
        </linearGradient>
        <linearGradient x1="50.496%" y1="49.528%" x2="49.504%" y2="50.475%" id="vqtd1ymfsl">
            <stop stop-color="#FF2C3D" stop-opacity=".8" offset="0%"/>
            <stop stop-color="#FF2C3D" stop-opacity=".3" offset="100%"/>
        </linearGradient>
        <linearGradient x1="50.19%" y1="49.884%" x2="49.81%" y2="50.116%" id="afu1ojjvzm">
            <stop stop-color="#FF2C3D" stop-opacity=".8" offset="0%"/>
            <stop stop-color="#FF2C3D" stop-opacity=".3" offset="100%"/>
        </linearGradient>
        <linearGradient x1="50.281%" y1="50.237%" x2="49.719%" y2="49.762%" id="et2gcpkypn">
            <stop stop-color="#FF2C3D" stop-opacity=".8" offset="0%"/>
            <stop stop-color="#FF2C3D" stop-opacity=".3" offset="100%"/>
        </linearGradient>
        <linearGradient x1="50.617%" y1="50.598%" x2="49.383%" y2="49.399%" id="ypjag5sz2o">
            <stop stop-color="#FF2C3D" stop-opacity=".8" offset="0%"/>
            <stop stop-color="#FF2C3D" stop-opacity=".3" offset="100%"/>
        </linearGradient>
        <linearGradient x1="50.992%" y1="50.979%" x2="49.009%" y2="49.016%" id="qkluiz5gyp">
            <stop stop-color="#FF2C3D" stop-opacity=".8" offset="0%"/>
            <stop stop-color="#FF2C3D" stop-opacity=".3" offset="100%"/>
        </linearGradient>
        <linearGradient x1="51.407%" y1="51.396%" x2="48.595%" y2="48.598%" id="7f57e3zmhq">
            <stop stop-color="#FF2C3D" stop-opacity=".8" offset="0%"/>
            <stop stop-color="#FF2C3D" stop-opacity=".3" offset="100%"/>
        </linearGradient>
        <linearGradient x1="51.88%" y1="51.871%" x2="48.123%" y2="48.122%" id="v4a7f0ewjr">
            <stop stop-color="#FF2C3D" stop-opacity=".8" offset="0%"/>
            <stop stop-color="#FF2C3D" stop-opacity=".3" offset="100%"/>
        </linearGradient>
        <linearGradient x1="52.444%" y1="52.435%" x2="47.563%" y2="47.557%" id="eh0qavmo2s">
            <stop stop-color="#FF2C3D" stop-opacity=".8" offset="0%"/>
            <stop stop-color="#FF2C3D" stop-opacity=".3" offset="100%"/>
        </linearGradient>
        <linearGradient x1="52.426%" y1="52.42%" x2="47.582%" y2="47.574%" id="lasvw3u9xt">
            <stop stop-color="#FF2C3D" stop-opacity=".8" offset="0%"/>
            <stop stop-color="#FF2C3D" stop-opacity=".3" offset="100%"/>
        </linearGradient>
    </defs>
    <g stroke-width=".747" fill="none" fill-rule="evenodd">
        <path d="M429.627 405.297c118.736 0 226.23 2.654 304.036 6.945 38.904 2.146 70.379 4.7 92.124 7.536 10.875 1.419 19.302 2.905 25.005 4.442 2.855.77 5.005 1.546 6.433 2.323.722.388 1.234.766 1.57 1.129.328.36.462.68.462.967 0 .287-.134.608-.462.968-.336.363-.848.741-1.57 1.13-1.428.775-3.578 1.552-6.433 2.322-5.703 1.537-14.13 3.023-25.005 4.442-21.745 2.835-53.22 5.39-92.124 7.535-77.807 4.292-185.3 6.946-304.036 6.946-118.736 0-226.23-2.654-304.036-6.946-38.904-2.145-70.379-4.7-92.124-7.535-10.875-1.419-19.304-2.905-25.007-4.442-2.855-.77-5.005-1.547-6.435-2.323-.715-.388-1.231-.766-1.564-1.13-.331-.36-.461-.68-.461-.967 0-.286.13-.608.46-.967.334-.363.85-.74 1.565-1.129 1.43-.777 3.58-1.554 6.435-2.323 5.703-1.537 14.132-3.023 25.007-4.442 21.745-2.835 53.22-5.39 92.124-7.536 77.806-4.29 185.3-6.945 304.036-6.945z" stroke="url(#s901na5s4a)" transform="translate(.373 1.364)"/>
        <path d="M432.602 405.488c117.775 15.066 224.058 31.338 300.688 45.468 38.315 7.064 69.21 13.592 90.42 19.163 10.606 2.787 18.776 5.332 24.235 7.58 2.737 1.125 4.77 2.168 6.088 3.12.664.475 1.126.917 1.411 1.318.278.4.37.734.343 1.018-.049.285-.217.586-.595.901-.37.318-.932.628-1.688.923-1.52.588-3.754 1.085-6.685 1.486-5.845.801-14.398 1.206-25.366 1.233-21.929.054-53.474-1.406-92.336-4.214-77.722-5.616-184.681-16.623-302.455-31.688-117.774-15.066-224.058-31.34-300.687-45.468-38.316-7.065-69.211-13.593-90.42-19.164-10.606-2.787-18.776-5.33-24.238-7.58-2.733-1.124-4.768-2.168-6.087-3.12-.66-.475-1.124-.916-1.408-1.318-.283-.399-.37-.734-.342-1.018.044-.284.214-.587.588-.902.377-.316.937-.627 1.695-.92 1.517-.59 3.75-1.087 6.679-1.487 5.853-.802 14.401-1.208 25.369-1.234 21.93-.054 53.475 1.407 92.337 4.214 77.721 5.616 184.68 16.623 302.454 31.69z" stroke="url(#fx9lcqjn2b)" transform="translate(.373 1.364)"/>
        <path d="M435.488 406.048c114.902 29.889 218.254 59.515 292.464 83.253 37.106 11.869 66.92 22.264 87.247 30.482 10.166 4.109 17.947 7.669 23.078 10.592 2.57 1.463 4.452 2.756 5.645 3.868.588.555.99 1.051 1.226 1.486.23.432.269.775.201 1.052-.075.278-.277.555-.688.82-.42.268-1.008.504-1.797.7-1.588.391-3.862.601-6.818.627-5.908.053-14.439-.63-25.32-1.996-21.76-2.73-52.863-8.18-91.052-15.896-76.377-15.433-181.069-39.922-295.971-69.81-114.903-29.887-218.254-59.514-292.464-83.252-37.106-11.869-66.92-22.263-87.248-30.481-10.166-4.11-17.946-7.67-23.077-10.593-2.569-1.463-4.454-2.756-5.641-3.867-.594-.556-.998-1.052-1.229-1.486-.233-.433-.274-.776-.202-1.054.073-.277.28-.555.69-.82.414-.266 1.01-.503 1.8-.699 1.579-.391 3.856-.601 6.813-.627 5.907-.052 14.438.63 25.32 1.996 21.759 2.73 52.863 8.18 91.052 15.897 76.376 15.432 181.069 39.92 295.971 69.808z" stroke="url(#d6icdrr3bc)" transform="translate(.373 1.364)"/>
        <path d="M438.296 406.975c110.167 44.224 208.91 86.725 279.499 119.686 35.294 16.48 63.544 30.575 82.66 41.306 9.561 5.366 16.826 9.885 21.543 13.435 2.361 1.777 4.068 3.299 5.104 4.552.518.626.855 1.17 1.029 1.63.172.457.173.803.066 1.07-.107.265-.347.514-.79.726-.443.211-1.063.37-1.871.465-1.617.187-3.903.106-6.839-.243-5.865-.698-14.241-2.457-24.861-5.192-21.235-5.468-51.393-14.821-88.292-27.32-73.793-25-174.52-62.574-284.687-106.799-110.168-44.225-208.912-86.725-279.5-119.687-35.295-16.48-63.544-30.574-82.661-41.305-9.56-5.366-16.825-9.886-21.543-13.436-2.36-1.777-4.066-3.299-5.102-4.552-.519-.626-.857-1.17-1.03-1.63-.173-.457-.174-.803-.066-1.069.107-.266.347-.516.789-.726.444-.212 1.064-.37 1.873-.465 1.616-.188 3.902-.107 6.838.242 5.866.698 14.24 2.458 24.86 5.193 21.236 5.468 51.394 14.82 88.292 27.32 73.794 24.999 174.521 62.573 284.689 106.799z" stroke="url(#2pnfdztcod)" transform="translate(.373 1.364)"/>
        <path d="M441.04 408.264c103.647 57.845 196.182 112.53 262.003 154.18 32.912 20.827 59.14 38.391 76.736 51.46 8.8 6.535 15.431 11.94 19.659 16.06 2.115 2.062 3.614 3.788 4.482 5.162.434.687.7 1.269.813 1.747.113.476.065.82-.07 1.07-.14.25-.41.467-.876.62-.467.154-1.102.234-1.916.225-1.628-.02-3.885-.39-6.752-1.109-5.73-1.437-13.813-4.245-24-8.305-20.366-8.119-49.09-21.222-84.098-38.302-70.015-34.16-165.143-84.21-268.79-142.056-103.647-57.845-196.182-112.53-262.004-154.18-32.911-20.827-59.138-38.39-76.734-51.46-8.8-6.536-15.43-11.94-19.658-16.06-2.116-2.062-3.615-3.788-4.484-5.161-.434-.688-.7-1.27-.813-1.748-.113-.476-.065-.82.07-1.07.14-.25.411-.467.876-.62.468-.155 1.103-.233 1.917-.225 1.627.02 3.884.39 6.752 1.11 5.73 1.436 13.813 4.244 23.998 8.304 20.367 8.119 49.09 21.223 84.099 38.303 70.014 34.158 165.144 84.209 268.79 142.055z" stroke="url(#ptjk4ulo1e)" transform="translate(.373 1.364)"/>
        <path d="M443.53 409.878c95.445 70.528 180.272 136.512 240.26 186.177 29.995 24.833 53.774 45.582 69.565 60.777 7.897 7.6 13.786 13.802 17.455 18.426 1.836 2.314 3.102 4.215 3.79 5.689.343.736.532 1.347.584 1.836.051.486-.035.821-.207 1.051-.17.231-.466.412-.947.505-.483.093-1.123.092-1.93-.021-1.61-.225-3.802-.878-6.555-1.956-5.5-2.152-13.161-5.963-22.748-11.282-19.169-10.638-45.992-27.28-78.543-48.664-65.1-42.766-153.09-104.481-248.535-175.01-95.446-70.527-180.272-136.51-240.26-186.175-29.994-24.834-53.774-45.583-69.565-60.779-7.897-7.6-13.786-13.801-17.455-18.424-1.836-2.314-3.102-4.216-3.789-5.69-.343-.736-.533-1.347-.584-1.835-.053-.487.034-.822.205-1.053.17-.23.467-.411.948-.504.483-.094 1.123-.091 1.93.021 1.61.225 3.802.879 6.555 1.956 5.5 2.152 13.16 5.963 22.748 11.283 19.169 10.636 45.992 27.28 78.543 48.663 65.1 42.766 153.089 104.482 248.535 175.01z" stroke="url(#c254zjaoif)" transform="translate(.373 1.364)"/>
        <path d="M445.773 411.783c85.697 82.067 161.44 158.278 214.621 215.153 26.591 28.438 47.539 52.036 61.267 69.112 6.866 8.54 11.918 15.438 14.969 20.49 1.527 2.528 2.541 4.575 3.035 6.123.247.775.356 1.404.347 1.896-.012.49-.14.81-.34 1.017-.198.208-.514.349-1.003.38-.491.032-1.126-.051-1.911-.265-1.57-.428-3.66-1.354-6.255-2.773-5.181-2.832-12.295-7.583-21.126-14.076-17.66-12.983-42.148-32.894-71.715-58.235-59.13-50.68-138.552-123.06-224.25-205.127-85.697-82.067-161.44-158.278-214.621-215.153-26.591-28.438-47.538-52.036-61.267-69.112-6.866-8.54-11.918-15.438-14.97-20.49-1.526-2.529-2.54-4.575-3.034-6.124-.247-.774-.357-1.404-.346-1.895.011-.49.14-.81.338-1.017.199-.208.516-.35 1.004-.38.492-.032 1.126.051 1.911.264 1.57.429 3.661 1.355 6.254 2.773 5.182 2.833 12.296 7.584 21.128 14.077 17.66 12.983 42.147 32.894 71.714 58.236 59.13 50.68 138.552 123.059 224.25 205.126z" stroke="url(#hi1yai2y7g)" transform="translate(.373 1.364)"/>
        <path d="M447.818 413.982c74.56 92.276 139.99 177.48 185.503 240.642 22.757 31.581 40.532 57.646 51.976 76.325 5.724 9.343 9.857 16.826 12.24 22.224 1.193 2.701 1.938 4.86 2.231 6.459.147.8.175 1.438.102 1.924-.073.484-.241.786-.464.967-.225.18-.556.28-1.045.255-.491-.037-1.11-.2-1.862-.512-1.503-.624-3.459-1.808-5.85-3.543-4.78-3.467-11.23-9.084-19.165-16.644-15.864-15.119-37.62-37.975-63.723-66.862-52.201-57.772-121.77-139.643-196.33-231.918-74.559-92.276-139.99-177.48-185.502-240.641-22.758-31.582-40.531-57.647-51.976-76.327-5.723-9.342-9.858-16.825-12.24-22.222-1.194-2.702-1.939-4.861-2.232-6.46-.146-.8-.175-1.438-.102-1.924.073-.483.242-.787.466-.966.223-.181.556-.28 1.044-.255.49.036 1.11.2 1.862.512 1.502.623 3.458 1.806 5.85 3.542 4.78 3.467 11.231 9.083 19.165 16.644 15.865 15.118 37.62 37.975 63.722 66.863 52.203 57.77 121.77 139.642 196.33 231.917z" stroke="url(#39ditizfjh)" transform="translate(.373 1.364)"/>
        <path d="M449.532 416.404c62.213 100.987 116.27 193.804 153.377 262.227 18.554 34.214 32.868 62.323 41.843 82.303 4.488 9.993 7.636 17.94 9.313 23.597.839 2.83 1.303 5.066 1.39 6.689.044.811-.008 1.448-.143 1.922-.133.47-.34.749-.584.9-.245.15-.587.207-1.068.114-.484-.093-1.076-.334-1.782-.739-1.412-.809-3.2-2.23-5.353-4.255-4.3-4.045-9.983-10.435-16.89-18.941-13.813-17.01-32.484-42.442-54.698-74.406-44.427-63.928-103.014-153.961-165.227-254.95-62.213-100.988-116.27-193.804-153.377-262.228-18.554-34.213-32.867-62.323-41.842-82.303-4.488-9.992-7.637-17.94-9.314-23.596-.84-2.83-1.304-5.067-1.39-6.69-.044-.811.008-1.448.144-1.921.133-.47.339-.75.583-.9.246-.15.588-.208 1.069-.115.482.093 1.075.334 1.78.74 1.413.808 3.202 2.23 5.354 4.255 4.3 4.045 9.983 10.434 16.891 18.94 13.812 17.01 32.483 42.443 54.697 74.407 44.427 63.927 103.014 153.961 165.227 254.95z" stroke="url(#1bkq0p5c0i)" transform="translate(.373 1.364)"/>
        <path d="M450.905 419.033c48.858 108.064 90.667 206.986 118.766 279.564 14.05 36.29 24.67 65.987 31.03 86.945 3.18 10.481 5.29 18.764 6.234 24.586.472 2.915.65 5.192.53 6.812-.06.812-.194 1.436-.388 1.888-.193.45-.432.7-.694.82-.262.117-.609.13-1.073-.023-.468-.153-1.026-.468-1.674-.958-1.297-.982-2.891-2.62-4.768-4.901-3.75-4.558-8.575-11.617-14.344-20.93-11.536-18.625-26.82-46.22-44.786-80.744-35.933-69.046-82.586-165.785-131.444-273.848-48.858-108.064-90.667-206.986-118.767-279.564-14.05-36.29-24.668-65.987-31.028-86.945-3.18-10.481-5.292-18.763-6.236-24.586-.472-2.915-.649-5.192-.529-6.813.061-.81.194-1.435.388-1.887.192-.45.431-.7.693-.818.262-.118.61-.132 1.075.021.466.154 1.025.467 1.673.958 1.297.982 2.891 2.62 4.767 4.902 3.75 4.558 8.576 11.616 14.345 20.93 11.536 18.624 26.819 46.219 44.785 80.743 35.933 69.046 82.587 165.785 131.445 273.848z" stroke="url(#1suvzpwgij)" transform="translate(.373 1.364)"/>
        <path d="M451.988 421.812c34.71 113.387 63.592 216.813 82.228 292.367 9.318 37.78 16.073 68.583 19.714 90.178 1.821 10.8 2.86 19.282 3.057 25.178.097 2.95-.019 5.232-.344 6.824-.163.796-.374 1.4-.624 1.823-.248.424-.517.642-.792.726-.275.084-.621.043-1.063-.16-.444-.21-.958-.593-1.538-1.163-1.161-1.138-2.534-2.965-4.105-5.466-3.14-4.997-7.027-12.61-11.564-22.581-9.073-19.936-20.721-49.248-34.15-85.772-26.854-73.046-60.82-174.919-95.53-288.306-34.71-113.387-63.593-216.813-82.23-292.368-9.317-37.778-16.071-68.583-19.713-90.177-1.82-10.8-2.86-19.283-3.056-25.179-.097-2.95.018-5.231.343-6.823.163-.796.374-1.4.624-1.823.248-.422.518-.64.793-.724.275-.084.62-.053 1.062.158.444.212.957.594 1.538 1.163 1.161 1.138 2.534 2.964 4.106 5.465 3.139 4.997 7.027 12.611 11.564 22.582 9.072 19.936 20.72 49.247 34.147 85.77 26.856 73.047 60.822 174.92 95.533 288.308z" stroke="url(#8a7xke97ck)" transform="translate(.373 1.364)"/>
        <path d="M452.665 424.703c20.001 116.872 35.487 223.124 44.358 300.43 4.435 38.656 7.215 70.067 8.079 91.948.432 10.944.385 19.49-.172 25.363-.28 2.94-.684 5.19-1.21 6.727-.263.764-.549 1.335-.85 1.73-.3.386-.595.563-.879.613-.283.05-.622-.025-1.033-.294-.414-.26-.874-.705-1.378-1.344-1.007-1.276-2.136-3.267-3.376-5.946-2.479-5.35-5.366-13.398-8.598-23.863-6.461-20.926-14.285-51.477-22.957-89.409-17.342-75.861-38.068-181.219-58.07-298.09-20-116.873-35.487-223.125-44.357-300.432-4.435-38.655-7.215-70.066-8.08-91.948-.431-10.943-.383-19.489.174-25.362.278-2.939.682-5.187 1.207-6.725.263-.769.55-1.34.852-1.73.3-.386.594-.568.878-.617.283-.048.623.026 1.034.292.413.266.874.71 1.377 1.349 1.007 1.276 2.137 3.262 3.377 5.942 2.478 5.355 5.365 13.4 8.597 23.866 6.462 20.926 14.286 51.477 22.956 89.408 17.343 75.862 38.07 181.22 58.071 298.092z" stroke="url(#vqtd1ymfsl)" transform="translate(.373 1.364)"/>
        <path d="M452.962 427.66c4.966 118.463 6.807 225.818 5.767 303.624-.519 38.904-1.759 70.414-3.686 92.228-.964 10.909-2.099 19.377-3.399 25.138-.65 2.872-1.338 5.056-2.054 6.509-.359.73-.716 1.26-1.064 1.613-.347.344-.663.487-.95.504-.287 0-.614-.11-.989-.429-.376-.31-.776-.815-1.195-1.512-.836-1.394-1.703-3.502-2.592-6.315-1.776-5.627-3.617-13.976-5.49-24.767-3.747-21.577-7.62-52.873-11.394-91.597-7.548-77.447-14.7-184.58-19.667-303.043-4.966-118.464-6.806-225.82-5.767-303.625.52-38.904 1.758-70.414 3.686-92.228.964-10.909 2.1-19.38 3.399-25.134.65-2.88 1.337-5.058 2.054-6.517.359-.73.715-1.26 1.064-1.607.347-.345.662-.49.949-.502.288-.011.615.106.99.42.376.318.775.817 1.194 1.514.836 1.394 1.704 3.506 2.593 6.322 1.776 5.626 3.616 13.972 5.49 24.763 3.747 21.577 7.62 52.873 11.393 91.598 7.549 77.446 14.701 184.58 19.668 303.042z" stroke="url(#afu1ojjvzm)" transform="translate(.373 1.364)"/>
        <path d="M452.92 430.629c-10.148 118.132-21.984 224.851-32.915 301.895-5.467 38.523-10.705 69.62-15.393 91.012-2.345 10.7-4.549 18.958-6.57 24.501-1.011 2.772-1.97 4.846-2.866 6.207-.449.671-.87 1.15-1.261 1.453-.387.302-.719.403-1.005.381-.287-.029-.596-.188-.927-.55-.333-.36-.667-.906-.993-1.646-.653-1.486-1.243-3.695-1.767-6.6-1.047-5.804-1.81-14.32-2.296-25.26-.97-21.878-.828-53.411.356-92.301 2.368-77.776 8.906-184.95 19.054-303.082 10.149-118.133 21.985-224.852 32.916-301.895 5.466-38.523 10.705-69.62 15.393-91.012 2.344-10.698 4.548-18.957 6.569-24.5 1.012-2.774 1.97-4.847 2.866-6.203.45-.678.871-1.16 1.261-1.46.388-.298.72-.4 1.006-.38.287.029.596.186.927.546.333.362.666.908.993 1.653.653 1.488 1.243 3.694 1.767 6.6 1.047 5.805 1.81 14.318 2.295 25.259.97 21.877.83 53.41-.355 92.3-2.368 77.776-8.906 184.95-19.055 303.082z" stroke="url(#et2gcpkypn)" transform="translate(.373 1.364)"/>
        <path d="M452.43 433.578c-25.098 115.888-50.417 220.24-71.064 295.273-10.324 37.516-19.478 67.697-26.85 88.321-3.687 10.314-6.923 18.225-9.634 23.466-1.356 2.62-2.571 4.56-3.633 5.787-.531.621-1.01 1.041-1.435 1.293-.423.244-.764.302-1.046.244-.281-.06-.567-.252-.85-.656-.284-.403-.546-.982-.775-1.763-.457-1.562-.763-3.821-.913-6.77-.299-5.893.027-14.434.938-25.347 1.821-21.824 5.974-53.084 12.098-91.508 12.246-76.846 32.369-182.32 57.468-298.208 25.097-115.887 50.418-220.24 71.065-295.271 10.324-37.517 19.476-67.697 26.849-88.32 3.686-10.315 6.923-18.227 9.633-23.468 1.357-2.624 2.571-4.559 3.634-5.79.531-.616 1.01-1.039 1.436-1.287.422-.247.764-.307 1.044-.246.282.06.569.256.851.655.285.402.546.985.775 1.765.457 1.56.763 3.822.912 6.771.3 5.892-.026 14.432-.938 25.346-1.82 21.822-5.973 53.082-12.096 91.506-12.247 76.846-32.37 182.32-57.469 298.207z" stroke="url(#ypjag5sz2o)" transform="translate(.373 1.364)"/>
        <path d="M451.636 436.431C411.994 548.195 373.6 648.49 343.573 720.293c-15.015 35.902-27.934 64.676-37.871 84.197-4.97 9.764-9.185 17.2-12.54 22.056-1.68 2.43-3.132 4.195-4.342 5.281-.605.544-1.134.903-1.588 1.095-.45.192-.797.207-1.067.111-.272-.095-.532-.326-.761-.757-.231-.434-.416-1.047-.544-1.849-.256-1.605-.27-3.889-.043-6.833.452-5.881 1.863-14.31 4.155-25.02 4.583-21.415 12.68-51.895 23.644-89.23 21.925-74.67 55.308-176.736 94.949-288.5 39.642-111.762 78.035-212.056 108.062-283.86 15.015-35.903 27.934-64.676 37.87-84.198 4.97-9.763 9.188-17.2 12.543-22.055 1.679-2.43 3.13-4.195 4.34-5.282.605-.543 1.135-.902 1.588-1.094.45-.192.798-.207 1.069-.111.27.096.53.326.76.757.23.435.415 1.046.543 1.849.256 1.605.27 3.889.044 6.833-.453 5.881-1.864 14.31-4.156 25.02-4.583 21.415-12.68 51.894-23.643 89.23-21.926 74.67-55.308 176.735-94.95 288.498z" stroke="url(#qkluiz5gyp)" transform="translate(.373 1.364)"/>
        <path d="M450.497 439.168C396.954 544.995 346.11 639.605 307.189 707.016c-19.46 33.708-35.937 60.609-48.278 78.71-6.171 9.054-11.3 15.895-15.247 20.286-1.974 2.197-3.639 3.764-4.977 4.688-.67.462-1.24.751-1.714.885-.472.131-.817.103-1.074-.026-.256-.13-.484-.391-.657-.848-.173-.46-.28-1.09-.305-1.903-.049-1.624.227-3.891.827-6.783 1.198-5.776 3.67-13.958 7.306-24.29 7.271-20.66 19.18-49.865 34.805-85.507 31.25-71.281 77.35-168.285 130.892-274.112 53.542-105.828 104.387-200.437 143.308-267.849 19.462-33.706 35.938-60.607 48.279-78.71 6.17-9.053 11.3-15.895 15.246-20.285 1.975-2.197 3.638-3.764 4.977-4.688.67-.462 1.24-.75 1.715-.884.471-.133.817-.104 1.073.025.256.13.485.39.658.848.173.46.279 1.09.304 1.903.05 1.624-.227 3.891-.826 6.782-1.198 5.777-3.67 13.959-7.306 24.291-7.27 20.66-19.18 49.865-34.806 85.507-31.25 71.282-77.35 168.285-130.892 274.112z" stroke="url(#7f57e3zmhq)" transform="translate(.373 1.364)"/>
        <path d="M448.99 441.73c-66.574 98.176-129.046 185.567-176.23 247.493-23.592 30.965-43.359 55.557-57.902 71.947-7.273 8.196-13.232 14.332-17.705 18.186-2.238 1.929-4.088 3.272-5.533 4.018-.723.374-1.327.588-1.813.66-.485.072-.824 0-1.062-.162-.238-.16-.431-.448-.545-.924-.113-.478-.137-1.117-.058-1.925.157-1.618.72-3.832 1.682-6.623 1.923-5.579 5.416-13.38 10.337-23.167 9.842-19.57 25.372-47.027 45.406-80.398 40.067-66.739 98.136-157.105 164.71-255.281 66.576-98.176 129.048-185.566 176.231-247.493 23.593-30.964 43.359-55.557 57.903-71.947 7.273-8.197 13.232-14.332 17.704-18.186 2.238-1.929 4.088-3.271 5.534-4.018.723-.373 1.326-.588 1.812-.66.485-.072.824 0 1.062.161.238.16.431.449.545.924.113.479.137 1.118.06 1.927-.159 1.617-.721 3.83-1.684 6.622-1.923 5.577-5.415 13.38-10.337 23.167-9.84 19.57-25.371 47.027-45.405 80.398-40.067 66.739-98.136 157.106-164.712 255.281z" stroke="url(#v4a7f0ewjr)" transform="translate(.373 1.364)"/>
        <path d="M447.146 444.082C368.618 533.014 295.531 611.77 240.85 667.208c-27.341 27.72-50.076 49.605-66.588 64.017-8.257 7.207-14.948 12.536-19.875 15.79-2.466 1.63-4.472 2.728-6 3.285-.765.278-1.39.415-1.882.426-.49.009-.818-.107-1.033-.296-.215-.19-.37-.5-.422-.985-.052-.49.005-1.127.186-1.919.362-1.584 1.201-3.708 2.512-6.356 2.617-5.288 7.074-12.584 13.201-21.667 12.253-18.162 31.15-43.426 55.268-73.984 48.234-61.115 117.333-143.38 195.861-232.313 78.529-88.932 151.614-167.688 206.295-223.126 27.342-27.72 50.078-49.604 66.589-64.016 8.257-7.208 14.948-12.537 19.875-15.792 2.466-1.63 4.472-2.727 6-3.284.765-.278 1.39-.414 1.883-.425.49-.009.816.105 1.032.295.216.19.371.5.422.986.052.489-.005 1.126-.186 1.918-.362 1.584-1.202 3.71-2.512 6.356-2.617 5.288-7.074 12.585-13.2 21.667-12.252 18.163-31.151 43.426-55.27 73.985-48.234 61.114-117.331 143.38-195.86 232.312z" stroke="url(#eh0qavmo2s)" transform="translate(.373 1.364)"/>
        <path d="M445.035 446.191c-89.209 78.247-171.723 147.09-233.016 195.14-30.647 24.027-55.983 42.85-74.195 55.049-9.107 6.101-16.422 10.538-21.723 13.143-2.654 1.302-4.783 2.136-6.37 2.495-.794.179-1.432.235-1.921.182-.487-.052-.797-.207-.986-.423-.19-.215-.304-.543-.295-1.032.012-.49.15-1.116.43-1.878.56-1.526 1.664-3.527 3.3-5.986 3.27-4.913 8.619-11.585 15.852-19.817 14.463-16.46 36.423-39.121 64.234-66.372 55.62-54.498 134.627-127.33 223.835-205.577 89.209-78.247 171.724-147.09 233.017-195.14 30.646-24.027 55.983-42.85 74.195-55.05 9.107-6.1 16.422-10.538 21.723-13.141 2.653-1.303 4.782-2.137 6.37-2.496.793-.18 1.43-.235 1.92-.182.488.052.797.208.987.423.19.216.304.542.294 1.031-.012.491-.15 1.116-.43 1.879-.56 1.526-1.663 3.527-3.3 5.986-3.268 4.913-8.618 11.584-15.85 19.816-14.465 16.46-36.425 39.122-64.235 66.372-55.622 54.499-134.627 127.33-223.836 205.578z" stroke="url(#lasvw3u9xt)" transform="translate(.373 1.364)"/>
    </g>
</svg>
